<svg xmlns="http://www.w3.org/2000/svg" xmlns:xlink="http://www.w3.org/1999/xlink" id="Layer_1" width="14" height="14" x="0" style="enable-background:new 0 0 14 14" y="0" version="1.1" viewBox="0 0 14 14" xml:space="preserve"><path style="fill:#fff" d="M1,4h12c0.553,0,1-0.447,1-1s-0.447-1-1-1H1C0.447,2,0,2.447,0,3S0.447,4,1,4z M13,6H1	C0.447,6,0,6.447,0,7c0,0.553,0.447,1,1,1h12c0.553,0,1-0.447,1-1C14,6.447,13.553,6,13,6z M13,10H1c-0.553,0-1,0.447-1,1	s0.447,1,1,1h12c0.553,0,1-0.447,1-1S13.553,10,13,10z"/></svg>