<svg xmlns="http://www.w3.org/2000/svg" xmlns:xlink="http://www.w3.org/1999/xlink" id="Layer_1" width="14" height="14" x="0" style="enable-background:new 0 0 14 14" y="0" version="1.1" viewBox="0 0 14 14" xml:space="preserve"><path fill="#FFF" d="M0,8h2V6H0V8z M3,8h2V6H3V8z M6,8h2V6H6V8z M9,8h2V6H9V8z M12,8h2V6h-2V8z M0,11h2V9H0V11z M3,11h2V9H3V11z M6,11h2V9H6V11z M9,11h2V9H9V11z M12,11h2V9h-2V11z M0,14h2v-2H0V14z M3,14h2v-2H3V14z M6,14h2v-2H6V14z M9,14h2v-2H9V14z M12,1	c0-0.553-0.447-1-1-1s-1,0.447-1,1H4c0-0.553-0.447-1-1-1S2,0.447,2,1H0v4h14V1H12z"/></svg>